<svg width="52" height="53" viewBox="0 0 52 53" fill="none" xmlns="http://www.w3.org/2000/svg">
<g filter="url(#filter0_diiii_73_346)">
<path d="M6 11.444L22.4375 2H29.1261L39.6954 8.04663L45.5321 11.444V33.9474L29.7887 43.0173L29.0315 43.329H22.5006L6.34705 34.1344L6.15775 33.9785L6 33.7915V11.444Z" fill="#EF9B20"/>
<path d="M5.62637 10.7936L5.25 11.0099V11.444V33.7915V34.0656L5.42672 34.2751L5.58447 34.4621L5.62843 34.5142L5.68107 34.5576L5.87037 34.7134L5.92008 34.7543L5.97604 34.7862L22.1296 43.9808L22.3021 44.079H22.5006H29.0315H29.1798L29.3169 44.0225L30.0741 43.7109L30.12 43.692L30.1631 43.6672L45.9065 34.5972L46.2821 34.3809V33.9474V11.444V11.0127L45.9094 10.7958L40.0726 7.39841L40.0678 7.39563L29.4985 1.34901L29.3255 1.25H29.1261H22.4375H22.2374L22.0639 1.34969L5.62637 10.7936Z" stroke="#EF9B20" stroke-width="1.5"/>
</g>
<path d="M34.21 18.82L26.51 23.28C26.2 23.46 25.81 23.46 25.49 23.28L17.79 18.82C17.24 18.5 17.1 17.75 17.52 17.28C17.81 16.95 18.14 16.68 18.49 16.49L23.91 13.49C25.07 12.84 26.95 12.84 28.11 13.49L33.53 16.49C33.88 16.68 34.21 16.96 34.5 17.28C34.9 17.75 34.76 18.5 34.21 18.82Z" fill="#0A263B"/>
<path d="M25.43 25.14V31.96C25.43 32.72 24.66 33.22 23.98 32.89C21.92 31.88 18.45 29.99 18.45 29.99C17.23 29.3 16.23 27.56 16.23 26.13V20.97C16.23 20.18 17.06 19.68 17.74 20.07L24.93 24.24C25.23 24.43 25.43 24.77 25.43 25.14Z" fill="#0A263B"/>
<path d="M26.57 25.14V31.96C26.57 32.72 27.34 33.22 28.02 32.89C30.08 31.88 33.55 29.99 33.55 29.99C34.77 29.3 35.77 27.56 35.77 26.13V20.97C35.77 20.18 34.94 19.68 34.26 20.07L27.07 24.24C26.77 24.43 26.57 24.77 26.57 25.14Z" fill="#0A263B"/>
<defs>
<filter id="filter0_diiii_73_346" x="0.5" y="-1.5" width="50.5321" height="54.329" filterUnits="userSpaceOnUse" color-interpolation-filters="sRGB">
<feFlood flood-opacity="0" result="BackgroundImageFix"/>
<feColorMatrix in="SourceAlpha" type="matrix" values="0 0 0 0 0 0 0 0 0 0 0 0 0 0 0 0 0 0 127 0" result="hardAlpha"/>
<feOffset dy="4"/>
<feGaussianBlur stdDeviation="2"/>
<feComposite in2="hardAlpha" operator="out"/>
<feColorMatrix type="matrix" values="0 0 0 0 0.110674 0 0 0 0 0.110674 0 0 0 0 0.110674 0 0 0 0.74 0"/>
<feBlend mode="normal" in2="BackgroundImageFix" result="effect1_dropShadow_73_346"/>
<feBlend mode="normal" in="SourceGraphic" in2="effect1_dropShadow_73_346" result="shape"/>
<feColorMatrix in="SourceAlpha" type="matrix" values="0 0 0 0 0 0 0 0 0 0 0 0 0 0 0 0 0 0 127 0" result="hardAlpha"/>
<feOffset dx="1" dy="1"/>
<feGaussianBlur stdDeviation="2.3"/>
<feComposite in2="hardAlpha" operator="arithmetic" k2="-1" k3="1"/>
<feColorMatrix type="matrix" values="0 0 0 0 0 0 0 0 0 0 0 0 0 0 0 0 0 0 0.25 0"/>
<feBlend mode="normal" in2="shape" result="effect2_innerShadow_73_346"/>
<feColorMatrix in="SourceAlpha" type="matrix" values="0 0 0 0 0 0 0 0 0 0 0 0 0 0 0 0 0 0 127 0" result="hardAlpha"/>
<feOffset dy="-2"/>
<feGaussianBlur stdDeviation="2"/>
<feComposite in2="hardAlpha" operator="arithmetic" k2="-1" k3="1"/>
<feColorMatrix type="matrix" values="0 0 0 0 0 0 0 0 0 0 0 0 0 0 0 0 0 0 0.25 0"/>
<feBlend mode="normal" in2="effect2_innerShadow_73_346" result="effect3_innerShadow_73_346"/>
<feColorMatrix in="SourceAlpha" type="matrix" values="0 0 0 0 0 0 0 0 0 0 0 0 0 0 0 0 0 0 127 0" result="hardAlpha"/>
<feOffset dx="2" dy="1"/>
<feGaussianBlur stdDeviation="2"/>
<feComposite in2="hardAlpha" operator="arithmetic" k2="-1" k3="1"/>
<feColorMatrix type="matrix" values="0 0 0 0 0.0365079 0 0 0 0 0.0365079 0 0 0 0 0.0365079 0 0 0 0.25 0"/>
<feBlend mode="normal" in2="effect3_innerShadow_73_346" result="effect4_innerShadow_73_346"/>
<feColorMatrix in="SourceAlpha" type="matrix" values="0 0 0 0 0 0 0 0 0 0 0 0 0 0 0 0 0 0 127 0" result="hardAlpha"/>
<feOffset dx="-3" dy="2"/>
<feGaussianBlur stdDeviation="2"/>
<feComposite in2="hardAlpha" operator="arithmetic" k2="-1" k3="1"/>
<feColorMatrix type="matrix" values="0 0 0 0 0 0 0 0 0 0 0 0 0 0 0 0 0 0 0.25 0"/>
<feBlend mode="normal" in2="effect4_innerShadow_73_346" result="effect5_innerShadow_73_346"/>
</filter>
</defs>
</svg>
