<svg width="51" height="53" viewBox="0 0 51 53" fill="none" xmlns="http://www.w3.org/2000/svg">
<g filter="url(#filter0_dii_1_149)">
<path d="M5.78894 11.444L22.2265 2H28.9151L39.4843 8.04663L45.321 11.444V33.9474L29.5776 43.0173L28.8204 43.329H22.2896L6.13599 34.1344L5.94669 33.9785L5.78894 33.7915V11.444Z" fill="#17364E"/>
<path d="M5.41531 10.7936L5.03894 11.0099V11.444V33.7915V34.0656L5.21566 34.2751L5.37341 34.4621L5.41737 34.5142L5.47001 34.5576L5.65931 34.7134L5.70902 34.7543L5.76498 34.7862L21.9186 43.9808L22.0911 44.079H22.2896H28.8204H28.9687L29.1059 44.0225L29.8631 43.7109L29.909 43.692L29.952 43.6672L45.6954 34.5972L46.071 34.3809V33.9474V11.444V11.0127L45.6983 10.7958L39.8616 7.39841L39.8567 7.39563L29.2875 1.34901L29.1144 1.25H28.9151H22.2265H22.0264L21.8528 1.34969L5.41531 10.7936Z" stroke="#355E7C" stroke-width="1.5"/>
</g>
<path d="M20.9587 33.75C18.5787 33.75 16.6288 32.02 16.6288 29.89V27.85C16.6288 27.44 16.9688 27.1 17.3788 27.1C17.7888 27.1 18.1288 27.44 18.1288 27.85C18.1288 29.1 19.3387 30.04 20.9587 30.04C22.5787 30.04 23.7888 29.1 23.7888 27.85C23.7888 27.44 24.1288 27.1 24.5388 27.1C24.9488 27.1 25.2888 27.44 25.2888 27.85V29.89C25.2888 32.02 23.3487 33.75 20.9587 33.75ZM18.3887 30.87C18.8287 31.69 19.8187 32.25 20.9587 32.25C22.0987 32.25 23.0887 31.68 23.5287 30.87C22.8187 31.3 21.9387 31.55 20.9587 31.55C19.9787 31.55 19.0987 31.3 18.3887 30.87Z" fill="white"/>
<path d="M20.9587 28.7999C19.3187 28.7999 17.8488 28.0499 17.1188 26.8599C16.7988 26.3399 16.6288 25.7299 16.6288 25.1099C16.6288 24.0599 17.0888 23.0799 17.9288 22.3499C19.5488 20.9299 22.3387 20.93 23.9688 22.34C24.8088 23.08 25.2787 24.0599 25.2787 25.1099C25.2787 25.7299 25.1088 26.3399 24.7888 26.8599C24.0688 28.0499 22.5987 28.7999 20.9587 28.7999ZM20.9587 22.7499C20.1787 22.7499 19.4588 23.0099 18.9188 23.4799C18.4088 23.9199 18.1288 24.4999 18.1288 25.1099C18.1288 25.4599 18.2187 25.78 18.3987 26.08C18.8587 26.84 19.8387 27.3099 20.9587 27.3099C22.0787 27.3099 23.0587 26.84 23.5087 26.09C23.6887 25.8 23.7787 25.4699 23.7787 25.1199C23.7787 24.5099 23.4988 23.9299 22.9888 23.4799C22.4588 23.0099 21.7387 22.7499 20.9587 22.7499Z" fill="white"/>
<path d="M20.9587 31.55C18.4887 31.55 16.6288 29.96 16.6288 27.86V25.11C16.6288 22.98 18.5687 21.25 20.9587 21.25C22.0887 21.25 23.1688 21.64 23.9788 22.34C24.8188 23.08 25.2888 24.06 25.2888 25.11V27.86C25.2888 29.96 23.4287 31.55 20.9587 31.55ZM20.9587 22.75C19.3987 22.75 18.1288 23.81 18.1288 25.11V27.86C18.1288 29.11 19.3387 30.05 20.9587 30.05C22.5787 30.05 23.7888 29.11 23.7888 27.86V25.11C23.7888 24.5 23.5088 23.92 22.9988 23.47C22.4588 23.01 21.7387 22.75 20.9587 22.75Z" fill="white"/>
<path d="M32.8288 25.7999C31.3188 25.7999 30.0389 24.6799 29.9189 23.2399C29.8389 22.4099 30.1389 21.5999 30.7389 21.0099C31.2389 20.4899 31.9488 20.2 32.6988 20.2H34.7888C35.7788 20.23 36.5388 21.0099 36.5388 21.9699V24.03C36.5388 24.99 35.7789 25.7699 34.8189 25.7999H32.8288ZM34.7588 21.7H32.7088C32.3588 21.7 32.0389 21.8299 31.8089 22.0699C31.5189 22.3499 31.3789 22.7299 31.4189 23.1099C31.4689 23.7699 32.1088 24.2999 32.8288 24.2999H34.7888C34.9188 24.2999 35.0388 24.18 35.0388 24.03V21.9699C35.0388 21.8199 34.9188 21.71 34.7588 21.7Z" fill="white"/>
<path d="M29.7892 32.25H27.2892C26.8792 32.25 26.5392 31.91 26.5392 31.5C26.5392 31.09 26.8792 30.75 27.2892 30.75H29.7892C32.3692 30.75 34.0392 29.08 34.0392 26.5V25.8H32.8292C31.3192 25.8 30.0392 24.68 29.9192 23.24C29.8392 22.41 30.1392 21.6 30.7392 21.01C31.2392 20.49 31.9492 20.2 32.6992 20.2H34.0292V19.5C34.0292 17.16 32.6592 15.55 30.4392 15.29C30.1992 15.25 29.9892 15.25 29.7792 15.25H20.7792C20.5392 15.25 20.3092 15.27 20.0792 15.3C17.8792 15.58 16.5292 17.18 16.5292 19.5V21.5C16.5292 21.91 16.1892 22.25 15.7792 22.25C15.3692 22.25 15.0292 21.91 15.0292 21.5V19.5C15.0292 16.42 16.9292 14.19 19.8792 13.82C20.1492 13.78 20.4592 13.75 20.7792 13.75H29.7792C30.0192 13.75 30.3292 13.76 30.6492 13.81C33.5992 14.15 35.5292 16.39 35.5292 19.5V20.95C35.5292 21.36 35.1892 21.7 34.7792 21.7H32.6992C32.3492 21.7 32.0292 21.83 31.7992 22.07C31.5092 22.35 31.3692 22.73 31.4092 23.11C31.4592 23.77 32.0992 24.3 32.8192 24.3H34.7892C35.1992 24.3 35.5392 24.64 35.5392 25.05V26.5C35.5392 29.94 33.2292 32.25 29.7892 32.25Z" fill="white"/>
<defs>
<filter id="filter0_dii_1_149" x="0.28894" y="-1.5" width="50.5321" height="54.329" filterUnits="userSpaceOnUse" color-interpolation-filters="sRGB">
<feFlood flood-opacity="0" result="BackgroundImageFix"/>
<feColorMatrix in="SourceAlpha" type="matrix" values="0 0 0 0 0 0 0 0 0 0 0 0 0 0 0 0 0 0 127 0" result="hardAlpha"/>
<feOffset dy="4"/>
<feGaussianBlur stdDeviation="2"/>
<feComposite in2="hardAlpha" operator="out"/>
<feColorMatrix type="matrix" values="0 0 0 0 0.110674 0 0 0 0 0.110674 0 0 0 0 0.110674 0 0 0 0.74 0"/>
<feBlend mode="normal" in2="BackgroundImageFix" result="effect1_dropShadow_1_149"/>
<feBlend mode="normal" in="SourceGraphic" in2="effect1_dropShadow_1_149" result="shape"/>
<feColorMatrix in="SourceAlpha" type="matrix" values="0 0 0 0 0 0 0 0 0 0 0 0 0 0 0 0 0 0 127 0" result="hardAlpha"/>
<feOffset dx="1" dy="1"/>
<feGaussianBlur stdDeviation="2.3"/>
<feComposite in2="hardAlpha" operator="arithmetic" k2="-1" k3="1"/>
<feColorMatrix type="matrix" values="0 0 0 0 0 0 0 0 0 0 0 0 0 0 0 0 0 0 0.25 0"/>
<feBlend mode="normal" in2="shape" result="effect2_innerShadow_1_149"/>
<feColorMatrix in="SourceAlpha" type="matrix" values="0 0 0 0 0 0 0 0 0 0 0 0 0 0 0 0 0 0 127 0" result="hardAlpha"/>
<feOffset dy="-2"/>
<feGaussianBlur stdDeviation="2"/>
<feComposite in2="hardAlpha" operator="arithmetic" k2="-1" k3="1"/>
<feColorMatrix type="matrix" values="0 0 0 0 0 0 0 0 0 0 0 0 0 0 0 0 0 0 0.25 0"/>
<feBlend mode="normal" in2="effect2_innerShadow_1_149" result="effect3_innerShadow_1_149"/>
</filter>
</defs>
</svg>
