<svg width="52" height="53" viewBox="0 0 52 53" fill="none" xmlns="http://www.w3.org/2000/svg">
<g filter="url(#filter0_dii_1_86)">
<path d="M6.00009 11.444L22.4376 2H29.1262L39.6954 8.04663L45.5322 11.444V33.9474L29.7888 43.0173L29.0316 43.329H22.5007L6.34714 34.1344L6.15784 33.9785L6.00009 33.7915V11.444Z" fill="#17364E"/>
<path d="M5.62646 10.7936L5.25009 11.0099V11.444V33.7915V34.0656L5.42682 34.2751L5.58457 34.4621L5.62852 34.5142L5.68116 34.5576L5.87046 34.7134L5.92017 34.7543L5.97613 34.7862L22.1297 43.9808L22.3022 44.079H22.5007H29.0316H29.1799L29.317 44.0225L30.0742 43.7109L30.1201 43.692L30.1632 43.6672L45.9066 34.5972L46.2822 34.3809V33.9474V11.444V11.0127L45.9095 10.7958L40.0727 7.39841L40.0679 7.39563L29.4986 1.34901L29.3256 1.25H29.1262H22.4376H22.2375L22.064 1.34969L5.62646 10.7936Z" stroke="#355E7C" stroke-width="1.5"/>
</g>
<path d="M36.2084 20.5775C36.1695 20.4131 36.0763 20.2667 35.9439 20.1619C35.8114 20.0571 35.6475 20 35.4786 20H34.4804C34.3746 19.7 34.2539 19.4075 34.1189 19.124L34.8224 18.4205C34.9419 18.3011 35.0176 18.1448 35.0372 17.9769C35.0568 17.8091 35.0192 17.6395 34.9304 17.4958C34.0685 16.1043 32.8958 14.9316 31.5044 14.0697C31.3607 13.9808 31.1912 13.9431 31.0233 13.9625C30.8555 13.982 30.6991 14.0576 30.5796 14.177L29.8761 14.8813C29.5934 14.7463 29.3001 14.6255 29.0001 14.5197V13.5208C29.0001 13.3519 28.943 13.1879 28.8382 13.0555C28.7334 12.923 28.587 12.8298 28.4226 12.791C27.629 12.6011 26.8161 12.5035 26.0001 12.5C25.8012 12.5 25.6104 12.579 25.4698 12.7197C25.3291 12.8603 25.2501 13.0511 25.2501 13.25V13.505C24.8004 13.3365 24.3241 13.2501 23.8439 13.25C21.7656 13.25 20.0714 14.8438 19.8719 16.8695C18.4026 17.0817 16.2501 18.2592 16.2501 20.75C16.2501 21.53 16.4219 22.2095 16.7346 22.778C16.0596 23.3045 15.4671 24.0898 15.4671 25.4135C15.4684 26.201 15.7011 26.9708 16.1363 27.6272C16.5716 28.2835 17.1901 28.7974 17.9151 29.105C17.9224 30.2721 18.3908 31.3891 19.2181 32.2123C20.0455 33.0356 21.1647 33.4984 22.3319 33.5C23.4077 33.4996 24.446 33.1047 25.2501 32.39V32.75C25.2501 32.9489 25.3291 33.1397 25.4698 33.2803C25.6104 33.421 25.8012 33.5 26.0001 33.5C26.7884 33.5 27.6036 33.4025 28.4226 33.209C28.587 33.1702 28.7334 33.077 28.8382 32.9445C28.943 32.8121 29.0001 32.6481 29.0001 32.4792V31.4802C29.3001 31.3745 29.5926 31.2537 29.8761 31.1188L30.5796 31.823C30.699 31.9427 30.8554 32.0184 31.0233 32.0379C31.1912 32.0574 31.3607 32.0194 31.5044 31.9303C32.8958 31.0684 34.0685 29.8957 34.9304 28.5042C35.0192 28.3605 35.0568 28.1909 35.0372 28.0231C35.0176 27.8552 34.9419 27.6989 34.8224 27.5795L34.1189 26.876C34.2539 26.5925 34.3746 26.3 34.4804 26H35.4786C35.6475 26 35.8114 25.9429 35.9439 25.8381C36.0763 25.7333 36.1695 25.5869 36.2084 25.4225C36.4026 24.605 36.5001 23.789 36.5001 23C36.5001 22.211 36.4026 21.3958 36.2084 20.5775ZM26.7501 20.888C27.6209 21.1985 28.2501 22.0235 28.2501 23C28.2501 23.9765 27.6209 24.8015 26.7501 25.112V20.888ZM22.3319 32C20.8386 32 19.6184 30.869 19.4474 29.4207C19.4579 29.4207 19.4676 29.4237 19.4781 29.4237C20.4554 29.4237 21.3981 29.0683 22.1309 28.4218C22.2075 28.3574 22.2704 28.2785 22.316 28.1895C22.3617 28.1005 22.389 28.0033 22.3965 27.9035C22.404 27.8038 22.3915 27.7036 22.3597 27.6088C22.3279 27.514 22.2774 27.4265 22.2113 27.3514C22.1452 27.2764 22.0647 27.2153 21.9746 27.1719C21.8846 27.1284 21.7867 27.1034 21.6868 27.0983C21.587 27.0932 21.4871 27.1081 21.393 27.1422C21.299 27.1763 21.2128 27.2288 21.1394 27.2968C20.6805 27.7012 20.0898 27.9242 19.4781 27.9237C18.8126 27.9228 18.1747 27.658 17.7042 27.1874C17.2336 26.7169 16.9688 26.079 16.9679 25.4135C16.9679 24.731 17.1764 24.308 17.7479 23.8955C18.1507 24.1727 18.6024 24.3712 19.0791 24.4805C19.2708 24.5206 19.4707 24.4841 19.6359 24.3789C19.801 24.2736 19.9185 24.1078 19.9631 23.9171C20.0076 23.7263 19.9758 23.5257 19.8744 23.3581C19.773 23.1905 19.61 23.0693 19.4204 23.0203C18.2976 22.7563 17.7501 22.0138 17.7501 20.75C17.7501 19.2185 19.1046 18.5547 19.9326 18.3815C20.1164 19.4225 20.5694 20.279 21.2886 20.939C21.0179 21.479 20.8626 22.115 20.8626 23C20.8626 24.7498 21.4341 25.493 22.3754 26.51C22.4421 26.5826 22.5226 26.6413 22.6122 26.6827C22.7018 26.724 22.7987 26.7472 22.8973 26.7509C22.9959 26.7546 23.0943 26.7388 23.1867 26.7042C23.2791 26.6697 23.3638 26.6172 23.4359 26.5497C23.5816 26.4145 23.6677 26.2268 23.6752 26.0281C23.6826 25.8294 23.6108 25.6358 23.4756 25.49C22.7039 24.6575 22.3626 24.236 22.3626 23C22.3626 21.764 22.7039 21.3433 23.4756 20.51C23.6109 20.3641 23.6826 20.1704 23.6751 19.9716C23.6676 19.7728 23.5814 19.5851 23.4355 19.4499C23.2896 19.3146 23.0959 19.2429 22.8971 19.2504C22.6983 19.2579 22.5106 19.3441 22.3754 19.49C22.3064 19.565 22.2426 19.637 22.1766 19.7105C21.6066 19.1203 21.3321 18.3282 21.3321 17.261C21.3329 16.5952 21.5978 15.9568 22.0687 15.4861C22.5396 15.0153 23.178 14.7506 23.8439 14.75C24.3501 14.75 24.8361 14.9098 25.2501 15.1918V29.0817C25.2491 29.8554 24.9413 30.5971 24.3943 31.1442C23.8472 31.6912 23.1055 31.999 22.3319 32ZM34.8674 24.5H33.9314C33.768 24.5 33.6092 24.5534 33.479 24.6519C33.3488 24.7505 33.2543 24.8889 33.2099 25.046C33.0522 25.6058 32.8297 26.1452 32.5469 26.6532C32.4672 26.7958 32.4362 26.9605 32.4587 27.1223C32.4812 27.284 32.5558 27.434 32.6714 27.5495L33.3284 28.2065C32.7433 29.0262 32.0263 29.7432 31.2066 30.3283L30.5504 29.6712C30.4346 29.5559 30.2845 29.4814 30.1227 29.4589C29.9609 29.4364 29.7961 29.4673 29.6534 29.5467C29.1451 29.8298 28.6054 30.0523 28.0454 30.2098C27.8883 30.2543 27.7502 30.3489 27.6517 30.4791C27.5533 30.6093 27.5001 30.768 27.5001 30.9313V31.8673C27.2481 31.9107 26.9976 31.9438 26.7501 31.9655V26.675C28.4601 26.3263 29.7501 24.8112 29.7501 23.0007C29.7501 21.1902 28.4601 19.6753 26.7501 19.3265V14.0345C26.9976 14.057 27.2481 14.0893 27.5001 14.132V15.0688C27.5001 15.232 27.5533 15.3907 27.6517 15.5209C27.7502 15.6511 27.8883 15.7457 28.0454 15.7903C28.6139 15.9515 29.1554 16.1742 29.6534 16.4532C29.9466 16.616 30.3126 16.5658 30.5504 16.3288L31.2066 15.6718C32.0263 16.2568 32.7433 16.9738 33.3284 17.7935L32.6714 18.4505C32.5558 18.566 32.4812 18.716 32.4587 18.8777C32.4362 19.0395 32.4672 19.2042 32.5469 19.3467C32.8297 19.8548 33.0522 20.3942 33.2099 20.954C33.2543 21.1112 33.3488 21.2495 33.479 21.3481C33.6092 21.4466 33.768 21.5 33.9314 21.5H34.8674C34.9551 22.0092 35.0001 22.5118 35.0001 23C35.0001 23.4882 34.9551 23.9908 34.8674 24.5Z" fill="white"/>
<defs>
<filter id="filter0_dii_1_86" x="0.500092" y="-1.5" width="50.5321" height="54.329" filterUnits="userSpaceOnUse" color-interpolation-filters="sRGB">
<feFlood flood-opacity="0" result="BackgroundImageFix"/>
<feColorMatrix in="SourceAlpha" type="matrix" values="0 0 0 0 0 0 0 0 0 0 0 0 0 0 0 0 0 0 127 0" result="hardAlpha"/>
<feOffset dy="4"/>
<feGaussianBlur stdDeviation="2"/>
<feComposite in2="hardAlpha" operator="out"/>
<feColorMatrix type="matrix" values="0 0 0 0 0.110674 0 0 0 0 0.110674 0 0 0 0 0.110674 0 0 0 0.74 0"/>
<feBlend mode="normal" in2="BackgroundImageFix" result="effect1_dropShadow_1_86"/>
<feBlend mode="normal" in="SourceGraphic" in2="effect1_dropShadow_1_86" result="shape"/>
<feColorMatrix in="SourceAlpha" type="matrix" values="0 0 0 0 0 0 0 0 0 0 0 0 0 0 0 0 0 0 127 0" result="hardAlpha"/>
<feOffset dx="1" dy="1"/>
<feGaussianBlur stdDeviation="2.3"/>
<feComposite in2="hardAlpha" operator="arithmetic" k2="-1" k3="1"/>
<feColorMatrix type="matrix" values="0 0 0 0 0 0 0 0 0 0 0 0 0 0 0 0 0 0 0.25 0"/>
<feBlend mode="normal" in2="shape" result="effect2_innerShadow_1_86"/>
<feColorMatrix in="SourceAlpha" type="matrix" values="0 0 0 0 0 0 0 0 0 0 0 0 0 0 0 0 0 0 127 0" result="hardAlpha"/>
<feOffset dy="-2"/>
<feGaussianBlur stdDeviation="2"/>
<feComposite in2="hardAlpha" operator="arithmetic" k2="-1" k3="1"/>
<feColorMatrix type="matrix" values="0 0 0 0 0 0 0 0 0 0 0 0 0 0 0 0 0 0 0.25 0"/>
<feBlend mode="normal" in2="effect2_innerShadow_1_86" result="effect3_innerShadow_1_86"/>
</filter>
</defs>
</svg>
