<svg width="52" height="53" viewBox="0 0 52 53" fill="none" xmlns="http://www.w3.org/2000/svg">
<g filter="url(#filter0_dii_1_160)">
<path d="M6.32104 11.444L22.7586 2H29.4472L40.0164 8.04663L45.8531 11.444V33.9474L30.1097 43.0173L29.3525 43.329H22.8217L6.66809 34.1344L6.47879 33.9785L6.32104 33.7915V11.444Z" fill="#17364E"/>
<path d="M5.94742 10.7936L5.57104 11.0099V11.444V33.7915V34.0656L5.74777 34.2751L5.90552 34.4621L5.94948 34.5142L6.00211 34.5576L6.19141 34.7134L6.24112 34.7543L6.29709 34.7862L22.4507 43.9808L22.6232 44.079H22.8217H29.3525H29.5008L29.638 44.0225L30.3952 43.7109L30.4411 43.692L30.4841 43.6672L46.2275 34.5972L46.6031 34.3809V33.9474V11.444V11.0127L46.2304 10.7958L40.3937 7.39841L40.3888 7.39563L29.8196 1.34901L29.6465 1.25H29.4472H22.7586H22.5585L22.3849 1.34969L5.94742 10.7936Z" stroke="#355E7C" stroke-width="1.5"/>
</g>
<path d="M27.321 22.9H21.321C20.911 22.9 20.571 22.56 20.571 22.15C20.571 21.74 20.911 21.4 21.321 21.4H27.321C27.731 21.4 28.071 21.74 28.071 22.15C28.071 22.56 27.731 22.9 27.321 22.9Z" fill="white"/>
<path d="M16.321 22.9001C15.911 22.9001 15.571 22.5601 15.571 22.1501V17.5301C15.571 15.0801 17.561 13.0901 20.011 13.0901H25.631C28.201 13.0901 30.071 14.8001 30.071 17.1501C30.071 17.5601 29.731 17.9001 29.321 17.9001C28.911 17.9001 28.571 17.5601 28.571 17.1501C28.571 15.3901 27.041 14.5901 25.631 14.5901H20.011C18.391 14.5901 17.071 15.9101 17.071 17.5301V22.1501C17.071 22.5701 16.731 22.9001 16.321 22.9001Z" fill="white"/>
<path d="M30.321 32.9H20.321C17.701 32.9 15.571 30.77 15.571 28.15V21.15C15.571 18.53 17.701 16.4 20.321 16.4H30.321C32.941 16.4 35.071 18.53 35.071 21.15V22.6C35.071 23.01 34.731 23.35 34.321 23.35H33.241C32.891 23.35 32.5711 23.48 32.3411 23.72L32.3311 23.73C32.0011 24.06 31.871 24.52 31.991 24.97C32.141 25.53 32.7311 25.94 33.3911 25.94H34.321C34.731 25.94 35.071 26.28 35.071 26.69V28.14C35.071 30.77 32.941 32.9 30.321 32.9ZM20.321 17.9C18.531 17.9 17.071 19.36 17.071 21.15V28.15C17.071 29.94 18.531 31.4 20.321 31.4H30.321C32.111 31.4 33.571 29.94 33.571 28.15V27.45H33.3911C32.0411 27.45 30.871 26.6 30.541 25.37C30.281 24.4 30.5611 23.37 31.2711 22.67C31.7911 22.14 32.491 21.85 33.241 21.85H33.571V21.15C33.571 19.36 32.111 17.9 30.321 17.9H20.321Z" fill="white"/>
<path d="M35.2909 27.45H33.3609C31.8509 27.45 30.571 26.33 30.451 24.89C30.371 24.06 30.671 23.25 31.271 22.66C31.771 22.14 32.4809 21.85 33.2309 21.85H35.281C36.261 21.85 37.0609 22.64 37.0609 23.62V25.68C37.0709 26.66 36.2709 27.45 35.2909 27.45ZM33.2409 23.35C32.8909 23.35 32.571 23.48 32.341 23.72C32.051 24 31.911 24.38 31.951 24.76C32.001 25.42 32.6409 25.95 33.3609 25.95H35.2909C35.4409 25.95 35.571 25.83 35.571 25.68V23.62C35.571 23.47 35.4409 23.35 35.2909 23.35H33.2409Z" fill="white"/>
<defs>
<filter id="filter0_dii_1_160" x="0.821045" y="-1.5" width="50.5321" height="54.329" filterUnits="userSpaceOnUse" color-interpolation-filters="sRGB">
<feFlood flood-opacity="0" result="BackgroundImageFix"/>
<feColorMatrix in="SourceAlpha" type="matrix" values="0 0 0 0 0 0 0 0 0 0 0 0 0 0 0 0 0 0 127 0" result="hardAlpha"/>
<feOffset dy="4"/>
<feGaussianBlur stdDeviation="2"/>
<feComposite in2="hardAlpha" operator="out"/>
<feColorMatrix type="matrix" values="0 0 0 0 0.110674 0 0 0 0 0.110674 0 0 0 0 0.110674 0 0 0 0.74 0"/>
<feBlend mode="normal" in2="BackgroundImageFix" result="effect1_dropShadow_1_160"/>
<feBlend mode="normal" in="SourceGraphic" in2="effect1_dropShadow_1_160" result="shape"/>
<feColorMatrix in="SourceAlpha" type="matrix" values="0 0 0 0 0 0 0 0 0 0 0 0 0 0 0 0 0 0 127 0" result="hardAlpha"/>
<feOffset dx="1" dy="1"/>
<feGaussianBlur stdDeviation="2.3"/>
<feComposite in2="hardAlpha" operator="arithmetic" k2="-1" k3="1"/>
<feColorMatrix type="matrix" values="0 0 0 0 0 0 0 0 0 0 0 0 0 0 0 0 0 0 0.25 0"/>
<feBlend mode="normal" in2="shape" result="effect2_innerShadow_1_160"/>
<feColorMatrix in="SourceAlpha" type="matrix" values="0 0 0 0 0 0 0 0 0 0 0 0 0 0 0 0 0 0 127 0" result="hardAlpha"/>
<feOffset dy="-2"/>
<feGaussianBlur stdDeviation="2"/>
<feComposite in2="hardAlpha" operator="arithmetic" k2="-1" k3="1"/>
<feColorMatrix type="matrix" values="0 0 0 0 0 0 0 0 0 0 0 0 0 0 0 0 0 0 0.25 0"/>
<feBlend mode="normal" in2="effect2_innerShadow_1_160" result="effect3_innerShadow_1_160"/>
</filter>
</defs>
</svg>
